<?xml version="1.0" encoding="utf-8"?>
<!-- Generator: Adobe Illustrator 17.1.0, SVG Export Plug-In . SVG Version: 6.00 Build 0)  -->
<!DOCTYPE svg PUBLIC "-//W3C//DTD SVG 1.1//EN" "http://www.w3.org/Graphics/SVG/1.1/DTD/svg11.dtd">
<svg version="1.1" id="Layer_1" xmlns="http://www.w3.org/2000/svg" xmlns:xlink="http://www.w3.org/1999/xlink" x="0px" y="0px"
	 viewBox="0 0 512 512" enable-background="new 0 0 512 512" xml:space="preserve">
<g id="_x39_4hADw.tif" display="none">
	
		<image display="inline" overflow="visible" width="400" height="400" id="Layer_0_1_" xlink:href="F760759274874062.png"  transform="matrix(1.2346 0 0 1.2346 9.0708 9.0708)">
	</image>
</g>
<g id="Outer_Ring">
	<path d="M256.027,27.035c126.586,0,229.204,102.618,229.204,229.204S382.612,485.443,256.027,485.443
		S26.823,382.825,26.823,256.239S129.441,27.035,256.027,27.035 M256.027,9.139c-33.35,0-65.713,6.536-96.188,19.426
		c-29.427,12.446-55.851,30.261-78.538,52.948c-22.687,22.688-40.502,49.111-52.948,78.538
		c-12.89,30.475-19.426,62.837-19.426,96.188s6.536,65.713,19.426,96.188c12.446,29.427,30.261,55.851,52.948,78.538
		c22.688,22.688,49.111,40.502,78.538,52.948c30.475,12.89,62.837,19.426,96.188,19.426s65.713-6.536,96.188-19.426
		c29.427-12.446,55.851-30.261,78.538-52.948c22.688-22.687,40.502-49.112,52.948-78.538c12.89-30.475,19.426-62.837,19.426-96.188
		s-6.536-65.713-19.426-96.188c-12.446-29.427-30.261-55.851-52.948-78.538c-22.687-22.687-49.112-40.502-78.538-52.948
		C321.739,15.675,289.377,9.139,256.027,9.139L256.027,9.139z"/>
</g>
<g id="Inner_Ring">
	<g>
		<path fill="#1F84BB" d="M255.217,48.965c114.027,0,206.465,92.437,206.465,206.465s-92.437,206.465-206.465,206.465
			S48.752,369.456,48.752,255.429S141.19,48.965,255.217,48.965 M255.217,36.965c-29.487,0-58.099,5.778-85.04,17.173
			c-26.016,11.004-49.378,26.754-69.438,46.814c-20.059,20.06-35.81,43.422-46.814,69.438
			c-11.395,26.941-17.173,55.553-17.173,85.04s5.778,58.099,17.173,85.04c11.004,26.016,26.754,49.378,46.814,69.438
			c20.06,20.059,43.422,35.81,69.438,46.814c26.941,11.395,55.553,17.173,85.04,17.173s58.099-5.778,85.04-17.173
			c26.016-11.004,49.378-26.754,69.438-46.814c20.059-20.06,35.81-43.422,46.814-69.438c11.395-26.941,17.173-55.553,17.173-85.04
			s-5.778-58.099-17.173-85.04c-11.004-26.016-26.754-49.378-46.814-69.438c-20.06-20.059-43.422-35.81-69.438-46.814
			C313.316,42.742,284.704,36.965,255.217,36.965L255.217,36.965z"/>
	</g>
</g>
<g>
	<path d="M122.349,152.492h16.917v24.168c6.68-9.184,14.365-16.072,23.058-20.664c8.691-4.592,18.389-6.888,29.092-6.888
		c18.669,0,34.645,6.727,47.924,20.18c13.279,13.455,19.92,29.647,19.92,48.578c0,19.334-6.581,35.75-19.739,49.241
		c-13.158,13.495-29.032,20.241-47.622,20.241c-10.464,0-20.08-2.176-28.853-6.525c-8.772-4.351-16.7-10.834-23.781-19.455v70.69
		h-16.917V152.492z M190.019,165.422c-14.629,0-26.945,5.111-36.952,15.33c-10.007,10.22-15.009,22.935-15.009,38.142
		c0,9.979,2.23,18.951,6.691,26.917c4.46,7.966,10.849,14.282,19.168,18.949c8.319,4.668,17.099,7.001,26.343,7.001
		c9.082,0,17.62-2.353,25.618-7.062c7.998-4.707,14.367-11.285,19.11-19.734c4.741-8.447,7.112-17.299,7.112-26.555
		c0-9.333-2.353-18.184-7.054-26.552c-4.701-8.368-11.03-14.867-18.987-19.495C208.104,167.736,199.422,165.422,190.019,165.422z"/>
</g>
<g>
	<path d="M380.018,323.104l14.26,7.492c-4.678,9.184-10.079,16.597-16.208,22.234c-6.129,5.64-13.022,9.93-20.683,12.869
		c-7.662,2.94-16.33,4.411-26.005,4.411c-21.449,0-38.22-7.028-50.314-21.087c-12.096-14.057-18.144-29.947-18.144-47.671
		c0-16.677,5.119-31.54,15.36-44.59c12.98-16.595,30.357-24.893,52.129-24.893c22.416,0,40.315,8.5,53.7,25.497
		c9.514,12.005,14.352,26.989,14.514,44.952H280.325c0.321,15.271,5.202,27.79,14.639,37.556
		c9.437,9.765,21.092,14.647,34.966,14.647c6.693,0,13.206-1.163,19.538-3.491c6.331-2.326,11.714-5.417,16.151-9.269
		S374.855,331.69,380.018,323.104z M380.018,287.697c-2.258-9.021-5.545-16.232-9.861-21.63
		c-4.316-5.396-10.022-9.747-17.119-13.051c-7.1-3.302-14.56-4.955-22.382-4.955c-12.907,0-23.998,4.15-33.272,12.446
		c-6.776,6.042-11.899,15.105-15.366,27.189H380.018z"/>
</g>
</svg>
